<?xml version="1.0" encoding="utf-8"?>
<!-- Generator: Adobe Illustrator 16.0.0, SVG Export Plug-In . SVG Version: 6.00 Build 0)  -->
<!DOCTYPE svg PUBLIC "-//W3C//DTD SVG 1.1//EN" "http://www.w3.org/Graphics/SVG/1.1/DTD/svg11.dtd">
<svg version="1.1" id="Layer_1" xmlns="http://www.w3.org/2000/svg" xmlns:xlink="http://www.w3.org/1999/xlink" x="0px" y="0px"
	 width="100px" height="100px" viewBox="0 0 100 100" enable-background="new 0 0 100 100" xml:space="preserve">
<circle fill="#FFFBE6" cx="53.307" cy="44.562" r="3.687"/>
<path fill="#FFFBE6" d="M50,20.25C22.452,20.25,0.12,41.771,0.12,50c0,6.963,22.332,29.75,49.88,29.75
	c27.549,0,49.881-22.787,49.881-29.75C99.881,41.771,77.549,20.25,50,20.25z M50.12,67.667c-9.758,0-17.666-7.911-17.666-17.668
	s7.908-17.666,17.666-17.666c9.757,0,17.666,7.909,17.666,17.666S59.877,67.667,50.12,67.667z"/>
<path fill="#FF8888" d="M50.12,32.333c-9.758,0-17.666,7.909-17.666,17.666s7.908,17.668,17.666,17.668
	c9.757,0,17.666-7.911,17.666-17.668S59.877,32.333,50.12,32.333z M50.12,61.792c-6.513,0-11.791-5.28-11.791-11.792
	s5.278-11.791,11.791-11.791c6.511,0,11.791,5.279,11.791,11.791S56.631,61.792,50.12,61.792z"/>
<path d="M50.12,38.208c-6.513,0-11.791,5.279-11.791,11.791s5.278,11.792,11.791,11.792c6.511,0,11.791-5.28,11.791-11.792
	S56.631,38.208,50.12,38.208z M53.307,48.25c-2.037,0-3.687-1.651-3.687-3.688s1.65-3.688,3.687-3.688s3.688,1.651,3.688,3.688
	S55.344,48.25,53.307,48.25z"/>
</svg>
