<?xml version="1.0" encoding="utf-8"?>
<!-- Generator: Adobe Illustrator 16.0.0, SVG Export Plug-In . SVG Version: 6.00 Build 0)  -->
<!DOCTYPE svg PUBLIC "-//W3C//DTD SVG 1.1//EN" "http://www.w3.org/Graphics/SVG/1.1/DTD/svg11.dtd">
<svg version="1.1" id="Layer_1" xmlns="http://www.w3.org/2000/svg" xmlns:xlink="http://www.w3.org/1999/xlink" x="0px" y="0px"
	 width="100px" height="100px" viewBox="0 0 100 100" enable-background="new 0 0 100 100" xml:space="preserve">
<ellipse fill="#75EA83" cx="50.25" cy="47.496" rx="40.958" ry="19.954"/>
<path fill="#938360" d="M50.288,67.449c-1.114,0-2.288-0.027-3.288-0.07v30.054c0,1.392,1.109,2.521,2.5,2.521
	c1.392,0,2.5-1.129,2.5-2.521V67.428C52,67.439,50.869,67.449,50.288,67.449z"/>
<path fill="#9DF4AB" d="M50.25,27.542c17.778,0,32.906,5.52,38.57,13.232c1.541-2.1,2.388-4.362,2.388-6.721
	c0-11.021-18.338-19.954-40.958-19.954S9.292,23.032,9.292,34.053c0,2.359,0.847,4.621,2.388,6.721
	C17.344,33.062,32.472,27.542,50.25,27.542z"/>
<path fill="#C5FFD1" d="M50.25,14.099c17.778,0,32.906,5.52,38.57,13.232c1.541-2.101,2.388-4.362,2.388-6.721
	c0-11.021-18.338-19.954-40.958-19.954S9.292,9.589,9.292,20.61c0,2.359,0.847,4.621,2.388,6.721
	C17.344,19.619,32.472,14.099,50.25,14.099z"/>
</svg>
