<?xml version="1.0" encoding="utf-8"?>
<!-- Generator: Adobe Illustrator 16.0.0, SVG Export Plug-In . SVG Version: 6.00 Build 0)  -->
<!DOCTYPE svg PUBLIC "-//W3C//DTD SVG 1.1//EN" "http://www.w3.org/Graphics/SVG/1.1/DTD/svg11.dtd">
<svg version="1.1" id="Layer_1" xmlns="http://www.w3.org/2000/svg" xmlns:xlink="http://www.w3.org/1999/xlink" x="0px" y="0px"
	 width="100px" height="100px" viewBox="0 0 100 100" enable-background="new 0 0 100 100" xml:space="preserve">
<path fill="#FF8888" d="M44.059,34.153c0,0-0.097,0.286-0.307,0.797c-0.19,0.505-0.57,1.263-0.876,2.191
	c-0.141,0.445-0.296,0.938-0.466,1.474c-0.162,0.515-0.264,1.133-0.406,1.73c-0.164,0.595-0.203,1.257-0.281,1.916
	c-0.115,0.647-0.056,1.359-0.079,2.05c0.016,0.702,0.092,1.429,0.173,2.158c0.165,0.75,0.208,1.483,0.458,2.267
	c0.341,1.539,0.95,3.171,1.608,4.879c0.661,1.702,1.515,3.508,2.366,5.369c0.892,1.927,1.798,3.885,2.704,5.843
	c0.906,2.038,1.791,4.131,2.571,6.309c0.381,1.101,0.752,2.188,1.051,3.327c0.152,0.565,0.305,1.128,0.456,1.686
	c0.138,0.576,0.24,1.157,0.355,1.727c0.427,2.304,0.659,4.632,0.499,6.91c-0.034,1.117-0.246,2.241-0.431,3.286
	c-0.107,0.524-0.287,1.04-0.427,1.537c-0.164,0.496-0.259,0.985-0.495,1.439c-0.771,1.844-1.729,3.376-2.748,4.54
	c-0.537,0.565-0.961,1.129-1.48,1.541c-0.509,0.418-0.964,0.794-1.389,1.111c-0.402,0.338-0.833,0.56-1.192,0.761
	c-0.356,0.196-0.66,0.364-0.906,0.499c-0.489,0.263-0.759,0.382-0.759,0.382s0.107-0.279,0.309-0.803
	c0.198-0.515,0.535-1.228,0.841-2.154c0.146-0.453,0.309-0.955,0.485-1.501c0.174-0.533,0.267-1.138,0.41-1.739
	c0.165-0.594,0.201-1.258,0.278-1.915c0.117-0.646,0.055-1.359,0.078-2.049c-0.014-0.7-0.093-1.428-0.175-2.155
	c-0.161-0.749-0.208-1.481-0.458-2.265c-0.339-1.538-0.947-3.17-1.605-4.877c-0.653-1.703-1.518-3.505-2.361-5.369
	c-0.889-1.928-1.792-3.887-2.695-5.846c-0.905-2.039-1.784-4.134-2.562-6.312c-0.382-1.1-0.746-2.19-1.048-3.328
	c-0.153-0.564-0.307-1.127-0.457-1.685c-0.134-0.577-0.236-1.157-0.353-1.727c-0.428-2.303-0.658-4.631-0.497-6.907
	c0.035-1.117,0.241-2.24,0.431-3.284c0.106-0.524,0.286-1.04,0.425-1.536c0.162-0.496,0.261-0.984,0.495-1.438
	c0.77-1.843,1.727-3.375,2.743-4.539c0.538-0.57,0.954-1.12,1.483-1.55c0.519-0.435,0.981-0.819,1.41-1.14
	c0.412-0.349,0.815-0.54,1.169-0.735c0.352-0.191,0.65-0.354,0.893-0.486C43.783,34.279,44.059,34.153,44.059,34.153z"/>
<path fill="#FF8888" d="M55.926,0.248c0,0-0.097,0.286-0.307,0.797c-0.19,0.505-0.57,1.263-0.877,2.191
	c-0.14,0.445-0.296,0.938-0.465,1.474c-0.162,0.515-0.264,1.133-0.406,1.73c-0.164,0.595-0.203,1.257-0.281,1.916
	c-0.115,0.647-0.056,1.359-0.08,2.05c0.016,0.702,0.092,1.429,0.174,2.158c0.165,0.75,0.207,1.483,0.458,2.267
	c0.34,1.539,0.949,3.171,1.607,4.879c0.661,1.701,1.515,3.507,2.366,5.369c0.892,1.927,1.798,3.885,2.704,5.842
	c0.906,2.038,1.791,4.131,2.571,6.309c0.381,1.101,0.752,2.188,1.051,3.328c0.152,0.565,0.305,1.127,0.456,1.686
	c0.138,0.576,0.24,1.156,0.354,1.726c0.428,2.303,0.66,4.632,0.5,6.91c-0.034,1.118-0.245,2.241-0.431,3.286
	c-0.106,0.524-0.287,1.041-0.427,1.537c-0.164,0.496-0.259,0.985-0.495,1.439c-0.771,1.844-1.729,3.377-2.747,4.541
	c-0.537,0.565-0.961,1.129-1.48,1.54c-0.509,0.419-0.964,0.795-1.39,1.112c-0.401,0.338-0.832,0.56-1.191,0.761
	c-0.356,0.196-0.66,0.363-0.906,0.499c-0.489,0.263-0.759,0.382-0.759,0.382s0.107-0.279,0.309-0.803
	c0.198-0.515,0.535-1.228,0.841-2.154c0.146-0.453,0.309-0.955,0.485-1.501c0.173-0.533,0.267-1.138,0.409-1.739
	c0.166-0.594,0.201-1.258,0.279-1.915c0.116-0.646,0.054-1.359,0.077-2.049c-0.013-0.7-0.093-1.428-0.175-2.155
	c-0.161-0.749-0.208-1.482-0.458-2.266c-0.339-1.537-0.947-3.169-1.605-4.876c-0.653-1.704-1.518-3.504-2.361-5.369
	c-0.889-1.928-1.792-3.887-2.695-5.846c-0.905-2.039-1.784-4.134-2.562-6.312c-0.382-1.1-0.746-2.191-1.048-3.328
	c-0.153-0.565-0.306-1.127-0.457-1.685c-0.134-0.577-0.236-1.158-0.353-1.727c-0.428-2.302-0.658-4.631-0.497-6.907
	c0.035-1.117,0.242-2.24,0.431-3.284c0.106-0.524,0.286-1.04,0.426-1.536c0.162-0.496,0.26-0.984,0.495-1.438
	c0.769-1.843,1.727-3.375,2.743-4.539c0.538-0.57,0.953-1.12,1.483-1.55c0.518-0.435,0.981-0.819,1.41-1.14
	c0.412-0.349,0.815-0.54,1.169-0.735c0.352-0.191,0.65-0.354,0.893-0.487C55.65,0.374,55.926,0.248,55.926,0.248z"/>
</svg>
