<?xml version="1.0" encoding="utf-8"?>
<!-- Generator: Adobe Illustrator 16.0.0, SVG Export Plug-In . SVG Version: 6.00 Build 0)  -->
<!DOCTYPE svg PUBLIC "-//W3C//DTD SVG 1.1//EN" "http://www.w3.org/Graphics/SVG/1.1/DTD/svg11.dtd">
<svg version="1.1" id="Layer_1" xmlns="http://www.w3.org/2000/svg" xmlns:xlink="http://www.w3.org/1999/xlink" x="0px" y="0px"
	 width="100px" height="100px" viewBox="0 0 100 100" enable-background="new 0 0 100 100" xml:space="preserve">
<path fill="#75EA83" d="M75.053,93.598c-3.145,3.179-7.092,4.93-11.565,4.93c-9.159-0.001-16.366-7.455-16.366-16.615v-0.38
	c0-0.145,0.203-0.315,0.486-0.54c0.396-0.3,0.757-0.67,1.273-1.105c0.542-0.435,1.057-0.934,1.676-1.494
	c2.507-2.24,5.536-5.439,8.295-9.279c2.753-3.84,5.153-8.319,6.787-13.119c1.663-4.799,2.492-9.919,2.508-15.039
	c0.018-5.119-0.814-10.239-2.464-15.039c-1.622-4.8-4.04-9.279-6.802-13.119c-1.363-1.92-2.865-3.679-4.271-5.24
	c-1.44-1.56-2.821-2.919-4.091-4.039c-0.625-0.56-1.199-1.06-1.747-1.495c-0.52-0.435-1.005-0.805-1.404-1.105
	c-0.382-0.3-0.732-0.53-0.946-0.685C46.201,0.08,46.087,0,46.087,0s-0.113,0.08-0.335,0.235c-0.213,0.155-0.565,0.385-0.945,0.685
	c-0.401,0.3-0.886,0.67-1.404,1.105c-0.549,0.435-1.123,0.935-1.747,1.495c-1.27,1.12-2.65,2.479-4.09,4.039
	c-1.406,1.561-2.907,3.32-4.27,5.24c-2.763,3.84-5.178,8.319-6.8,13.119c-1.65,4.799-2.48,9.919-2.461,15.039
	c0.016,5.12,0.853,10.24,2.516,15.039c1.634,4.8,4.051,9.279,6.803,13.119c2.76,3.84,5.819,7.039,8.326,9.279
	c0.619,0.561,1.194,1.06,1.738,1.494c0.516,0.436,1.289,0.806,1.686,1.105c0.283,0.225,1.023,0.395,1.023,0.539v0.381
	c0,9.756,7.648,17.692,17.403,17.693c4.764,0,9.085-1.864,12.435-5.25L75.053,93.598z"/>
</svg>
