<?xml version="1.0" encoding="utf-8"?>
<!-- Generator: Adobe Illustrator 16.0.0, SVG Export Plug-In . SVG Version: 6.00 Build 0)  -->
<!DOCTYPE svg PUBLIC "-//W3C//DTD SVG 1.1//EN" "http://www.w3.org/Graphics/SVG/1.1/DTD/svg11.dtd">
<svg version="1.1" id="Layer_1" xmlns="http://www.w3.org/2000/svg" xmlns:xlink="http://www.w3.org/1999/xlink" x="0px" y="0px"
	 width="100px" height="100px" viewBox="0 0 100 100" enable-background="new 0 0 100 100" xml:space="preserve">
<path fill="#EDEDED" d="M49.404,73.997c1.257-0.403,4.478-2.014,4.478-4.076s-2.089-3.318-3.749-3.922
	c-1.66-0.604-1.811-0.653-0.577-1.208c1.232-0.555,3.142-2.164,3.142-3.899c0-1.737-1.031-3.474-1.031-5.033c0-1.14,0-3.324,0-4.419
	c0.872-0.469,1.46-1.393,1.46-2.466l0.003-30.517c-0.603,0.015-1.213,0.026-1.845,0.026v-0.003c-0.35,0.005-0.702,0.008-1.056,0.008
	c-0.079,0.001-0.151,0.008-0.231,0.008c-0.431,0-0.857-0.004-1.283-0.01v0.003c-0.37,0-0.734-0.004-1.095-0.009l0.012,30.494
	c0,1.08,0.592,2.006,1.474,2.473c0,1.257,0,4.164,0,5.142c0,1.258,0.527,2.214,0.804,2.969c0.278,0.755,0.504,2.062-1.534,3.069
	c-2.038,1.007-3.045,1.735-3.045,2.717c0,0.98,0.403,1.408,3.146,2.742s4.229,1.511,0.805,3.045
	c-3.422,1.535-4.176,1.99-4.176,3.171c0,1.183,1.333,1.634,3.571,3.044c2.238,1.409,2.719,1.507,1.862,1.936
	c-0.856,0.43-2.414,1.486-4.101,2.04c-1.686,0.553-1.812,1.532-1.812,2.036s0.705,1.536,2.239,2.366
	c1.535,0.83,2.239,1.207,2.843,1.585c0.604,0.377,0.905,0.605,0.428,0.957c-0.478,0.351-2.415,1.457-4.328,2.188
	c-1.912,0.73-1.763,1.837-1.763,2.089c0,0.251,0.301,1.459,2.818,2.866c2.517,1.409,3.648,2.217,4.63,3.121
	c0.981,0.905,1.762,1.357,1.586,0.226c-0.178-1.133-0.006-2.062-1.612-3.396c-1.605-1.335-3.319-2.214-3.822-2.491
	c-0.504-0.277-0.203-0.277,1.709-1.107c1.913-0.83,3.674-1.837,3.674-3.85s-3.092-3.523-4-3.976
	c-0.906-0.453-1.332-0.578-0.301-0.855c1.031-0.276,4.829-1.912,4.829-4.176s-2.516-3.17-3.647-3.773S48.146,74.4,49.404,73.997z"/>
<path fill="#F9AF55" d="M87.181,2.495c-1.126-1.204-2.542-1.92-4.081-1.92c-0.122,0-0.241,0.016-0.361,0.025l0.003-0.006
	c-1.227,0-4.058,1.226-11.907,1.226c-6.624,0-11.157-0.697-16.492-0.915c-0.191-0.009-0.388-0.015-0.581-0.023
	c-0.003,0-0.005,0-0.008,0c-1.229-0.051-2.479-0.08-3.751-0.08c-0.08,0-0.152,0.008-0.23,0.008c-1.195,0.002-2.371,0.03-3.526,0.079
	c-0.002,0-0.004,0-0.006,0c-0.194,0.008-0.391,0.014-0.582,0.023c-5.336,0.219-9.868,0.916-16.492,0.916
	c-7.851,0-10.681-1.227-11.907-1.227l0.003,0.006c-0.12-0.009-0.239-0.025-0.362-0.025c-1.537,0-2.953,0.717-4.08,1.92
	c-1.559,1.664-1.559,12.688,0,14.352c1.125,1.203,2.541,1.919,4.08,1.919c0.295,0,0.581-0.035,0.863-0.085
	c1.457-0.224,4.473-1.179,11.403-1.179c7.85,0,12.756,0.981,19.549,0.981v-0.003c0.426,0.006,0.853,0.01,1.283,0.01
	c0.08,0,0.152-0.007,0.231-0.008c0.354,0,0.706-0.003,1.056-0.008v0.003c6.794,0,11.701-0.981,19.55-0.981
	c6.931,0,9.946,0.955,11.403,1.179c0.283,0.05,0.568,0.085,0.862,0.085c1.54,0,2.956-0.717,4.081-1.92
	C88.739,15.182,88.739,4.158,87.181,2.495z"/>
</svg>
