<?xml version="1.0" encoding="utf-8"?>
<!-- Generator: Adobe Illustrator 16.0.0, SVG Export Plug-In . SVG Version: 6.00 Build 0)  -->
<!DOCTYPE svg PUBLIC "-//W3C//DTD SVG 1.1//EN" "http://www.w3.org/Graphics/SVG/1.1/DTD/svg11.dtd">
<svg version="1.1" id="Layer_1" xmlns="http://www.w3.org/2000/svg" xmlns:xlink="http://www.w3.org/1999/xlink" x="0px" y="0px"
	 width="100px" height="100px" viewBox="0 0 100 100" enable-background="new 0 0 100 100" xml:space="preserve">
<path fill="#FFFFFF" d="M26.486,80.207c0.131,0.496,0.18,0.584,0.293,0.967c0.111,0.382,0.066,0.607,0.943,0.315
	c0.879-0.293,1.102-0.337,1.352,0.539c0.246,0.878,0.428,1.014,1.305,0.811c0.877-0.202,1.033-0.269,0.742-1.282
	c-0.293-1.013-0.314-1.08,0.674-1.26c0.99-0.18,1.08-0.36,0.832-1.328c-0.246-0.966-0.426-0.786-1.35-0.494
	c-0.922,0.293-1.057,0.293-1.213-0.539c-0.158-0.833-0.182-1.035-1.059-0.879c-0.877,0.157-1.08,0.361-0.855,1.126
	c0.225,0.764,0.428,1.012-0.629,1.305C26.463,79.779,26.373,79.779,26.486,80.207z"/>
<path fill="#FF5555" d="M99.822,59.24c-1.26-10.978-12.688-10.708-25.734-7.019C61.039,55.911,13.26,70.757,7.41,72.828
	s-8.459,7.559-6.93,12.507c1.857,6.006,5.939,10.079,14.398,8.099c8.457-1.979,45.262-11.428,61.639-16.466
	C92.895,71.928,101.082,70.218,99.822,59.24z M30.379,82.838c-0.877,0.203-1.059,0.067-1.305-0.811
	c-0.25-0.876-0.473-0.832-1.352-0.539c-0.877,0.292-0.832,0.066-0.943-0.315c-0.113-0.383-0.162-0.471-0.293-0.967
	c-0.113-0.428-0.023-0.428,1.035-0.72c1.057-0.293,0.854-0.541,0.629-1.305c-0.225-0.765-0.021-0.969,0.855-1.126
	c0.877-0.156,0.9,0.046,1.059,0.879c0.156,0.832,0.291,0.832,1.213,0.539c0.924-0.292,1.104-0.472,1.35,0.494
	c0.248,0.968,0.158,1.148-0.832,1.328c-0.988,0.18-0.967,0.247-0.674,1.26C31.412,82.57,31.256,82.636,30.379,82.838z"/>
<path fill="#666666" d="M28.824,32.695c0,0,7.021-5.759,9.629-15.388C38.453,17.308,32.336,25.047,28.824,32.695z"/>
<path fill="#D3D3D3" d="M19.648,67.249c0,0,2.609-1.17,4.318-3.778c1.709-2.61,16.107-24.926,22.947-36.804
	c6.838-11.877,6.027-20.605,6.027-20.605c-10.438,4.499-17.096,11.518-23.756,23.396C22.527,41.333,8.67,65.99,5.971,70.488
	c-1.221,2.032-1.717,3.161-1.637,3.941c0.895-0.645,1.92-1.191,3.076-1.602c1.65-0.583,6.633-2.184,13.234-4.263
	C20.174,67.708,19.648,67.249,19.648,67.249z M28.824,32.695c3.512-7.648,9.629-15.388,9.629-15.388
	C35.846,26.936,28.824,32.695,28.824,32.695z"/>
<path fill="#FFFFFF" d="M26.486,80.207c0.131,0.496,0.18,0.584,0.293,0.967c0.111,0.382,0.066,0.607,0.943,0.315
	c0.879-0.293,1.102-0.337,1.352,0.539c0.246,0.878,0.428,1.014,1.305,0.811c0.877-0.202,1.033-0.269,0.742-1.282
	c-0.293-1.013-0.314-1.08,0.674-1.26c0.99-0.18,1.08-0.36,0.832-1.328c-0.246-0.966-0.426-0.786-1.35-0.494
	c-0.922,0.293-1.057,0.293-1.213-0.539c-0.158-0.833-0.182-1.035-1.059-0.879c-0.877,0.157-1.08,0.361-0.855,1.126
	c0.225,0.764,0.428,1.012-0.629,1.305C26.463,79.779,26.373,79.779,26.486,80.207z"/>
</svg>
