<?xml version="1.0" encoding="utf-8"?>
<!-- Generator: Adobe Illustrator 16.0.0, SVG Export Plug-In . SVG Version: 6.00 Build 0)  -->
<!DOCTYPE svg PUBLIC "-//W3C//DTD SVG 1.1//EN" "http://www.w3.org/Graphics/SVG/1.1/DTD/svg11.dtd">
<svg version="1.1" id="Layer_1" xmlns="http://www.w3.org/2000/svg" xmlns:xlink="http://www.w3.org/1999/xlink" x="0px" y="0px"
	 width="100px" height="99.999px" viewBox="0 0 100 99.999" enable-background="new 0 0 100 99.999" xml:space="preserve">
<path fill="#E04646" d="M56.232,62.832c-0.162,0.002-0.324,0.002-0.486,0.004c7.283-0.057,13.594-0.699,17.152-1.644
	c-3.479,0.921-9.59,1.557-16.664,1.638C56.232,62.831,56.232,62.831,56.232,62.832z"/>
<path fill="#E04646" d="M49.803,62.747c0.359,0.016,0.719,0.027,1.086,0.037C50.523,62.774,50.162,62.763,49.803,62.747z"/>
<path fill="#E04646" d="M51.555,62.802c-0.084-0.002-0.17-0.004-0.256-0.006c0.436,0.011,0.867,0.023,1.312,0.03
	c-0.004,0-0.008,0-0.014,0C52.246,62.82,51.902,62.81,51.555,62.802z"/>
<path fill="#E04646" d="M47.322,62.626c0.641,0.039,1.295,0.072,1.963,0.101C48.617,62.698,47.963,62.665,47.322,62.626z"/>
<path fill="#E04646" d="M37.818,61.49c0.777,0.165,1.641,0.317,2.586,0.455C39.459,61.808,38.594,61.654,37.818,61.49z"/>
<path fill="#E04646" d="M40.486,61.958c0.93,0.136,1.936,0.259,3.008,0.366C42.424,62.217,41.416,62.094,40.486,61.958z"/>
<path fill="#E04646" d="M45.908,62.533c0.363,0.026,0.73,0.052,1.104,0.075C46.639,62.585,46.271,62.56,45.908,62.533z"/>
<path fill="#E04646" d="M43.676,62.342c0.652,0.064,1.324,0.122,2.021,0.175C45.002,62.464,44.326,62.406,43.676,62.342z"/>
<path fill="#E04646" d="M36.172,61.083c0.16,0.046,0.324,0.091,0.496,0.137C36.496,61.174,36.332,61.129,36.172,61.083z"/>
<path fill="#B5B5B5" d="M48.248,58.672c-0.467-0.653-0.936-1.277-1.361-1.771c-0.162-0.188-0.359-0.401-0.557-0.615
	c-7.559,0.522-12.854,1.73-12.854,3.141c0,0.519,0.74,1.008,2.029,1.446c-0.107-0.036-0.219-0.072-0.316-0.109
	C36.402,59.785,41.496,58.989,48.248,58.672z"/>
<path fill="#E04646" d="M35.859,60.99c0.102,0.031,0.207,0.062,0.312,0.093C36.066,61.053,35.959,61.021,35.859,60.99z"/>
<path fill="#E04646" d="M35.506,60.873c0.115,0.04,0.23,0.079,0.354,0.117C35.736,60.952,35.621,60.913,35.506,60.873z"/>
<path fill="#E04646" d="M36.668,61.22c0.092,0.022,0.18,0.046,0.275,0.07C36.848,61.266,36.76,61.242,36.668,61.22z"/>
<path fill="#E04646" d="M36.943,61.29c0.275,0.066,0.561,0.134,0.865,0.198C37.504,61.424,37.219,61.356,36.943,61.29z"/>
<path fill="#E04646" d="M74.266,60.765L74.266,60.765c-0.373,0.14-0.803,0.276-1.283,0.405
	C73.463,61.041,73.895,60.904,74.266,60.765z"/>
<path fill="#F4F4F4" d="M51,56.066c-0.131-0.327-0.264-0.659-0.398-0.994c-0.881,0.028-1.758,0.058-2.6,0.101
	c0.23,0.326,0.455,0.652,0.674,0.978C49.43,56.114,50.215,56.09,51,56.066z"/>
<g>
	<path fill="#BFED83" d="M53.672,43.994c0.211,0.484,0.4,0.964,0.557,1.443c0.002-0.007,0.004-0.016,0.006-0.022
		C54.078,44.943,53.883,44.47,53.672,43.994z"/>
	<path fill="#BFED83" d="M53.398,43.39c0.688-4.37,1.955-9.415,3.168-13.431c-0.031-2.622-0.246-4.823-0.371-6.983
		c-0.199-3.446-0.795-8.847-0.629-13.12C55.732,5.581,55.6,0.114,55.6,0.114s-1.723,9.741-2.354,13.187
		c-0.629,3.446-1.457,10.934-1.988,14.412c-0.391,2.573-0.311,8.617-0.244,11.595c1.039,1.587,1.941,3.091,2.604,4.566
		C53.543,43.713,53.477,43.552,53.398,43.39z"/>
</g>
<path fill="#9FC66D" d="M74.627,15.121c-2.758,3.927-7.289,10.549-8.99,13.906c-1.496,2.956-4.744,9.257-6.928,13.762
	c-0.525,4.226-1.057,7.049-1.453,8.796c-0.154,0.271-0.291,0.529-0.434,0.788v0.002c0.822-1.516,1.828-3.188,3.084-5.016
	c3.541-5.148,5.793-7.787,7.828-9.963c2.07-4.466,4.551-9.831,6.121-13.259c3.105-6.779,8.623-19.371,8.623-19.371
	S77.385,11.194,74.627,15.121z"/>
<path d="M55.285,55.004L55.285,55.004c0.002,0.086,0.006,0.157,0.008,0.223C55.291,55.163,55.287,55.089,55.285,55.004z"/>
<path d="M55.293,55.459c0.002-0.005,0.004-0.01,0.006-0.015c-0.004,0.006-0.006,0.013-0.008,0.019
	C55.291,55.462,55.293,55.46,55.293,55.459z"/>
<path fill="#F4F4F4" d="M62.152,55.218c-0.416-0.022-0.832-0.048-1.26-0.068c-0.25,0.341-0.516,0.651-0.773,0.976
	c0.221,0.01,0.43,0.022,0.646,0.032C61.223,55.865,61.688,55.556,62.152,55.218z"/>
<path fill="#E04646" d="M57.314,58.528c-0.01,0.007-0.018,0.013-0.023,0.019h0.002C57.299,58.541,57.307,58.534,57.314,58.528z"/>
<path fill="#B5B5B5" d="M60.766,56.157c-0.217-0.01-0.426-0.022-0.646-0.032c-0.232,0.293-0.457,0.602-0.697,0.881
	c-0.004,0.001-0.006,0.003-0.008,0.006C59.852,56.733,60.305,56.451,60.766,56.157z"/>
<path fill="#E04646" d="M58.287,57.764c0.016-0.012,0.033-0.023,0.047-0.033C58.32,57.74,58.303,57.752,58.287,57.764z"/>
<path fill="#B5B5B5" d="M62.277,56.239c-0.85,0.818-1.643,1.622-2.359,2.381c7.387,0.271,13.059,1.104,14.348,2.144
	c1.096-0.41,1.711-0.862,1.711-1.337C75.977,57.966,70.279,56.729,62.277,56.239z"/>
<path fill="#F4F4F4" d="M63.283,55.29c-0.033,0.029-0.064,0.057-0.098,0.088c-0.311,0.288-0.609,0.574-0.908,0.861
	c8.002,0.489,13.699,1.727,13.699,3.188c0,1.806-8.713,3.277-19.742,3.403c-0.002,0.001-0.002,0.001-0.002,0.002
	c-0.404,0.005-0.809,0.009-1.217,0.01c-0.096,0.001-0.191,0.002-0.289,0.002c-0.709,0-1.406-0.006-2.096-0.016
	c-0.012,0-0.021-0.002-0.033-0.002c-0.352-0.006-0.695-0.017-1.043-0.024c-0.205-0.005-0.416-0.009-0.621-0.015
	c-9.924-0.289-17.457-1.681-17.457-3.36c0-1.41,5.295-2.618,12.854-3.141c-0.275-0.298-0.576-0.613-0.904-0.95
	c-8.268,0.619-14.045,2.036-14.045,3.686c0,0.09,0.021,0.177,0.055,0.266h-0.01c0.707,1.635,7.287,17.03,7.287,32.999
	c0,4.197,7.18,7.599,16.035,7.599c8.857,0,16.037-3.401,16.037-7.599c0-0.027-0.008-0.052-0.008-0.079
	c0.016-15.494,6.211-30.428,7.211-32.763c0.084-0.139,0.129-0.279,0.129-0.423C78.117,57.321,71.959,55.876,63.283,55.29z"/>
<g>
	<path fill="#AEE05F" d="M54.723,56.812L54.723,56.812c0.082-0.205,0.18-0.432,0.273-0.65C54.902,56.38,54.803,56.606,54.723,56.812
		z"/>
	<path fill="#AEE05F" d="M57.289,27.646c-1.396,4.233-3.064,10.487-3.891,15.743c0.658,1.358,1.135,2.69,1.307,4.036
		c0.461,3.633,0.58,7.488,0.594,8.019c-0.025,0.056-0.043,0.102-0.066,0.157c0.516-1.175,1.174-2.516,2.023-4.017
		c0.551-2.429,1.365-6.92,2.055-14.396c1.16-12.59,1.258-16.035,1.855-19.315c0.596-3.28,1.789-9.973,1.789-9.973
		S59.211,21.815,57.289,27.646z"/>
</g>
<path fill="#441515" d="M56.156,59.785c0.031-0.044,0.066-0.084,0.1-0.127C56.223,59.701,56.188,59.741,56.156,59.785z"/>
<path fill="#441515" d="M55.002,62.634c0.047-0.264,0.105-0.51,0.17-0.747C55.107,62.124,55.049,62.37,55.002,62.634z"/>
<path fill="#441515" d="M56.902,58.912c-0.031,0.032-0.062,0.065-0.094,0.098C56.84,58.978,56.871,58.944,56.902,58.912z"/>
<path fill="#441515" d="M57.293,58.547h-0.002c-0.021,0.017-0.037,0.035-0.057,0.053C57.254,58.582,57.273,58.564,57.293,58.547z"/>
<path fill="#441515" d="M55.506,60.942c0.053-0.117,0.105-0.232,0.162-0.343C55.611,60.71,55.559,60.825,55.506,60.942z"/>
<path fill="#BF936F" d="M56.232,62.832c0-0.001,0-0.001,0.002-0.002c8.123-0.093,14.977-0.917,18.031-2.065
	c-1.285-1.04-6.959-1.873-14.348-2.145C58.146,60.497,56.832,62.085,56.232,62.832z"/>
<path fill="#441515" d="M55.246,61.645c0.047-0.148,0.096-0.295,0.15-0.435C55.342,61.35,55.293,61.496,55.246,61.645z"/>
<path fill="#441515" d="M55.809,60.331c0.057-0.096,0.115-0.188,0.174-0.279C55.924,60.144,55.865,60.235,55.809,60.331z"/>
<path fill="#B5B5B5" d="M50.398,57.316c0.295,0.452,0.814,0.64,1.5,0.985c-0.27-0.676-0.578-1.44-0.898-2.235
	c-0.789,0.022-1.578,0.048-2.336,0.084c0.57,0.848,1.094,1.669,1.568,2.444c0.084-0.003,0.172-0.004,0.256-0.006
	C50.4,57.815,50.398,57.316,50.398,57.316z"/>
<path fill="#BF936F" d="M35.189,60.764c2.762,1.041,8.629,1.816,15.744,2.023c-0.199-0.327-1.424-2.341-2.686-4.115
	C41.496,58.989,36.402,59.785,35.189,60.764z"/>
<g>
	<path fill="#BFED83" d="M51.662,62.805c0.322,0.008,0.641,0.017,0.969,0.023c-0.002-0.003-0.006-0.009-0.006-0.011
		C52.305,62.812,51.979,62.812,51.662,62.805z"/>
	<path fill="#BFED83" d="M50.559,59.125c-1.309-2.187-3.107-4.938-5.098-7.227c-3.977-4.571-7.588-7.521-15.539-13.021
		s-14.479-7.123-14.479-7.123c4.176,2.386,8.084,5.202,10.404,6.858c2.318,1.656,10.9,8.846,13.186,10.768s6.162,5.566,7.854,7.521
		c1.582,1.833,3.775,5.438,4.047,5.886c0.223,0.006,0.449,0.011,0.674,0.017C51.016,61.501,50.715,60.157,50.559,59.125z"/>
</g>
<path fill="#9FC66D" d="M53.754,59.641c0.262-0.945,0.73-2.366,1.545-4.196c-0.014-0.53-0.133-4.386-0.594-8.019
	c-0.498-3.909-3.447-7.687-6.561-12.424S38.9,22.876,36.648,20.656c-2.254-2.22-8.217-11.298-8.217-11.298s2.021,5.334,6.66,12.987
	c4.637,7.653,6.791,11.928,8.514,16.201c1.723,4.274,3.578,8.217,4.639,10.734c0.699,1.661,2.504,6.148,3.654,9.021
	c0.467,0.236,1.008,0.544,1.613,1.068C53.609,59.455,53.68,59.55,53.754,59.641z"/>
<path fill="#9FC66D" d="M56.232,62.832c0.926-1.155,3.549-4.312,6.953-7.454c4.275-3.942,5.469-4.738,8.184-7.853
	c2.717-3.114,8.383-7.587,8.383-7.587s-2.684,1.026-8.184,5.201s-4.871,6.362-8.416,9.311s-7.354,3.611-8.15,8.184l0.014,0.208
	C55.424,62.841,55.828,62.837,56.232,62.832z"/>
<path fill="#BFED83" d="M80.281,26.188c-3.279,1.558-5.301,3.479-8.812,7.29c-3.512,3.81-5.863,5.599-11.562,13.881
	c-4.021,5.847-5.58,10.214-6.152,12.283c0.955,1.133,0.484,2.765,0.33,3.196c-0.438-0.002-0.859-0.013-1.287-0.02l-0.004,0.01
	c0.639,0.009,1.281,0.015,1.934,0.015c0.098,0,0.193-0.001,0.289-0.002l-0.014-0.208c0.514-2.946,2.279-4.271,4.42-5.628
	c2.053-2.382,3.742-5.208,5.852-8.553c2.32-3.678,11.264-15.571,11.264-15.571l8.02-8.813
	C84.557,24.068,83.562,24.632,80.281,26.188z"/>
<g>
	<path fill="#BF936F" d="M53.758,59.626c0,0.005-0.002,0.011-0.004,0.015c-0.074-0.091-0.145-0.186-0.242-0.271
		c0.098,0.084,0.166,0.181,0.242,0.271C53.756,59.636,53.756,59.632,53.758,59.626z"/>
	<path fill="#BF936F" d="M52.83,58.851c0.029,0.02,0.059,0.036,0.088,0.058C52.889,58.887,52.859,58.87,52.83,58.851z"/>
	<path fill="#BF936F" d="M52.793,62.829l0.004-0.01c-0.371-0.005-0.746-0.007-1.113-0.015c0.012,0,0.025,0.001,0.035,0.001
		c0.299,0.006,0.605,0.007,0.906,0.012c0,0.002,0.004,0.008,0.006,0.011c0.689,0.01,1.387,0.016,2.096,0.016
		C54.074,62.844,53.432,62.838,52.793,62.829z"/>
	<path fill="#BF936F" d="M50.488,58.589c-0.084,0.002-0.172,0.003-0.256,0.006c0.105,0.175,0.227,0.362,0.326,0.53
		C50.531,58.934,50.508,58.756,50.488,58.589z"/>
</g>
<path fill="#AEE05F" d="M54.084,62.839c0.166-0.467,0.727-2.343-0.572-3.469c-1.49-1.292-2.617-1.292-3.113-2.054
	c0,0,0.002,2.834,1.209,5.487C52.42,62.821,53.244,62.835,54.084,62.839z"/>
</svg>
